<svg width="95" height="96" viewBox="0 0 95 96" fill="none" xmlns="http://www.w3.org/2000/svg">
<g filter="url(#filter0_d_43_26)">
<path d="M11.25 88C11.25 88 4 88 4 80.6667C4 73.3333 11.25 51.3333 47.5 51.3333C83.75 51.3333 91 73.3333 91 80.6667C91 88 83.75 88 83.75 88H11.25ZM47.5 44C53.2685 44 58.8007 41.6822 62.8796 37.5564C66.9585 33.4306 69.25 27.8348 69.25 22C69.25 16.1652 66.9585 10.5695 62.8796 6.44365C58.8007 2.31785 53.2685 0 47.5 0C41.7315 0 36.1993 2.31785 32.1204 6.44365C28.0415 10.5695 25.75 16.1652 25.75 22C25.75 27.8348 28.0415 33.4306 32.1204 37.5564C36.1993 41.6822 41.7315 44 47.5 44Z" fill="white"/>
</g>
<defs>
<filter id="filter0_d_43_26" x="0" y="0" width="95" height="96" filterUnits="userSpaceOnUse" color-interpolation-filters="sRGB">
<feFlood flood-opacity="0" result="BackgroundImageFix"/>
<feColorMatrix in="SourceAlpha" type="matrix" values="0 0 0 0 0 0 0 0 0 0 0 0 0 0 0 0 0 0 127 0" result="hardAlpha"/>
<feOffset dy="4"/>
<feGaussianBlur stdDeviation="2"/>
<feComposite in2="hardAlpha" operator="out"/>
<feColorMatrix type="matrix" values="0 0 0 0 0 0 0 0 0 0 0 0 0 0 0 0 0 0 0.25 0"/>
<feBlend mode="normal" in2="BackgroundImageFix" result="effect1_dropShadow_43_26"/>
<feBlend mode="normal" in="SourceGraphic" in2="effect1_dropShadow_43_26" result="shape"/>
</filter>
</defs>
</svg>
